# xmcd
#
# Track frame offsets: 
#        150
#        21749
#        43098
#        67517
#        115515
#        135534
#        163275
#        187944
#        209606
#        230891
#
# Disc length: 3452 seconds
#
# Revision: 0
# Processed by: cddbd v1.4PL0 Copyright (c) Steve Scherf et al.
# Submitted via: ExactAudioCopy v0.90b4
#
DISCID=8d0d7a0a
DTITLE=John Hiatt - Madrid Theatre  12-01-01  disc 1
DYEAR=2001
DGENRE=Blues
TTITLE0=Lincoln Town
TTITLE1=All The lilacs in Ohio
TTITLE2=I Know A Place
TTITLE3=Slow Turning
TTITLE4=Paper Thin
TTITLE5=Everybody Went Low
TTITLE6=Is Anybody There
TTITLE7=Drive South
TTITLE8=My Old Friend
TTITLE9=Cry Love
EXTD=
EXTT0=
EXTT1=
EXTT2=
EXTT3=
EXTT4=
EXTT5=
EXTT6=
EXTT7=
EXTT8=
EXTT9=
PLAYORDER=
